<svg width="544" height="155" viewBox="0 0 544 155" fill="none" xmlns="http://www.w3.org/2000/svg">
<g clip-path="url(#clip0_309_2)">
<g opacity="0.6">
<path d="M3 129.5C3 130.328 2.32843 131 1.5 131C0.671573 131 0 130.328 0 129.5C0 128.672 0.671573 128 1.5 128C2.32843 128 3 128.672 3 129.5Z" fill="#36393D"/>
<path d="M541 129.5C541 130.328 541.672 131 542.5 131C543.328 131 544 130.328 544 129.5C544 128.672 543.328 128 542.5 128C541.672 128 541 128.672 541 129.5Z" fill="#36393D"/>
<path d="M35 137.5C35 138.328 34.3284 139 33.5 139C32.6716 139 32 138.328 32 137.5C32 136.672 32.6716 136 33.5 136C34.3284 136 35 136.672 35 137.5Z" fill="#36393D"/>
<path d="M509 137.5C509 138.328 509.672 139 510.5 139C511.328 139 512 138.328 512 137.5C512 136.672 511.328 136 510.5 136C509.672 136 509 136.672 509 137.5Z" fill="#36393D"/>
<path d="M35 153.5C35 154.328 34.3284 155 33.5 155C32.6716 155 32 154.328 32 153.5C32 152.672 32.6716 152 33.5 152C34.3284 152 35 152.672 35 153.5Z" fill="#36393D"/>
<path d="M509 153.5C509 154.328 509.672 155 510.5 155C511.328 155 512 154.328 512 153.5C512 152.672 511.328 152 510.5 152C509.672 152 509 152.672 509 153.5Z" fill="#36393D"/>
<path d="M43 153.5C43 154.328 42.3284 155 41.5 155C40.6716 155 40 154.328 40 153.5C40 152.672 40.6716 152 41.5 152C42.3284 152 43 152.672 43 153.5Z" fill="#36393D"/>
<path d="M501 153.5C501 154.328 501.672 155 502.5 155C503.328 155 504 154.328 504 153.5C504 152.672 503.328 152 502.5 152C501.672 152 501 152.672 501 153.5Z" fill="#36393D"/>
<path d="M11 137.5C11 138.328 10.3284 139 9.5 139C8.67157 139 8 138.328 8 137.5C8 136.672 8.67157 136 9.5 136C10.3284 136 11 136.672 11 137.5Z" fill="#36393D"/>
<path d="M533 137.5C533 138.328 533.672 139 534.5 139C535.328 139 536 138.328 536 137.5C536 136.672 535.328 136 534.5 136C533.672 136 533 136.672 533 137.5Z" fill="#36393D"/>
<path d="M42 129.5C42 130.328 41.3284 131 40.5 131C39.6716 131 39 130.328 39 129.5C39 128.672 39.6716 128 40.5 128C41.3284 128 42 128.672 42 129.5Z" fill="#36393D"/>
<path d="M502 129.5C502 130.328 502.672 131 503.5 131C504.328 131 505 130.328 505 129.5C505 128.672 504.328 128 503.5 128C502.672 128 502 128.672 502 129.5Z" fill="#36393D"/>
<path d="M66 113.5C66 114.328 65.3284 115 64.5 115C63.6716 115 63 114.328 63 113.5C63 112.672 63.6716 112 64.5 112C65.3284 112 66 112.672 66 113.5Z" fill="#36393D"/>
<path d="M479 113.5C479 114.328 479.672 115 480.5 115C481.328 115 482 114.328 482 113.5C482 112.672 481.328 112 480.5 112C479.672 112 479 112.672 479 113.5Z" fill="#36393D"/>
<path d="M83 153.5C83 154.328 82.3284 155 81.5 155C80.6716 155 80 154.328 80 153.5C80 152.672 80.6716 152 81.5 152C82.3284 152 83 152.672 83 153.5Z" fill="#36393D"/>
<path d="M462 153.5C462 154.328 462.672 155 463.5 155C464.328 155 465 154.328 465 153.5C465 152.672 464.328 152 463.5 152C462.672 152 462 152.672 462 153.5Z" fill="#36393D"/>
<path d="M66 153.5C66 154.328 65.3284 155 64.5 155C63.6716 155 63 154.328 63 153.5C63 152.672 63.6716 152 64.5 152C65.3284 152 66 152.672 66 153.5Z" fill="#36393D"/>
<path d="M479 153.5C479 154.328 479.672 155 480.5 155C481.328 155 482 154.328 482 153.5C482 152.672 481.328 152 480.5 152C479.672 152 479 152.672 479 153.5Z" fill="#36393D"/>
<path d="M11 145.5C11 146.328 10.3284 147 9.5 147C8.67157 147 8 146.328 8 145.5C8 144.672 8.67157 144 9.5 144C10.3284 144 11 144.672 11 145.5Z" fill="#36393D"/>
<path d="M533 145.5C533 146.328 533.672 147 534.5 147C535.328 147 536 146.328 536 145.5C536 144.672 535.328 144 534.5 144C533.672 144 533 144.672 533 145.5Z" fill="#36393D"/>
<path d="M19 137.5C19 138.328 18.3284 139 17.5 139C16.6716 139 16 138.328 16 137.5C16 136.672 16.6716 136 17.5 136C18.3284 136 19 136.672 19 137.5Z" fill="#36393D"/>
<path d="M525 137.5C525 138.328 525.672 139 526.5 139C527.328 139 528 138.328 528 137.5C528 136.672 527.328 136 526.5 136C525.672 136 525 136.672 525 137.5Z" fill="#36393D"/>
<path d="M50 129.5C50 130.328 49.3284 131 48.5 131C47.6716 131 47 130.328 47 129.5C47 128.672 47.6716 128 48.5 128C49.3284 128 50 128.672 50 129.5Z" fill="#36393D"/>
<path d="M494 129.5C494 130.328 494.672 131 495.5 131C496.328 131 497 130.328 497 129.5C497 128.672 496.328 128 495.5 128C494.672 128 494 128.672 494 129.5Z" fill="#36393D"/>
<path d="M99 137.5C99 138.328 98.3284 139 97.5 139C96.6716 139 96 138.328 96 137.5C96 136.672 96.6716 136 97.5 136C98.3284 136 99 136.672 99 137.5Z" fill="#36393D"/>
<path d="M446 137.5C446 138.328 446.672 139 447.5 139C448.328 139 449 138.328 449 137.5C449 136.672 448.328 136 447.5 136C446.672 136 446 136.672 446 137.5Z" fill="#36393D"/>
<path d="M106 121.5C106 122.328 105.328 123 104.5 123C103.672 123 103 122.328 103 121.5C103 120.672 103.672 120 104.5 120C105.328 120 106 120.672 106 121.5Z" fill="#36393D"/>
<path d="M439 121.5C439 122.328 439.672 123 440.5 123C441.328 123 442 122.328 442 121.5C442 120.672 441.328 120 440.5 120C439.672 120 439 120.672 439 121.5Z" fill="#36393D"/>
<path d="M107 137.5C107 138.328 106.328 139 105.5 139C104.672 139 104 138.328 104 137.5C104 136.672 104.672 136 105.5 136C106.328 136 107 136.672 107 137.5Z" fill="#36393D"/>
<path d="M438 137.5C438 138.328 438.672 139 439.5 139C440.328 139 441 138.328 441 137.5C441 136.672 440.328 136 439.5 136C438.672 136 438 136.672 438 137.5Z" fill="#36393D"/>
<path d="M114 121.5C114 122.328 113.328 123 112.5 123C111.672 123 111 122.328 111 121.5C111 120.672 111.672 120 112.5 120C113.328 120 114 120.672 114 121.5Z" fill="#36393D"/>
<path d="M431 121.5C431 122.328 431.672 123 432.5 123C433.328 123 434 122.328 434 121.5C434 120.672 433.328 120 432.5 120C431.672 120 431 120.672 431 121.5Z" fill="#36393D"/>
<path d="M138 137.5C138 138.328 137.328 139 136.5 139C135.672 139 135 138.328 135 137.5C135 136.672 135.672 136 136.5 136C137.328 136 138 136.672 138 137.5Z" fill="#36393D"/>
<path d="M407 137.5C407 138.328 407.672 139 408.5 139C409.328 139 410 138.328 410 137.5C410 136.672 409.328 136 408.5 136C407.672 136 407 136.672 407 137.5Z" fill="#36393D"/>
<path d="M178 113.5C178 114.328 177.328 115 176.5 115C175.672 115 175 114.328 175 113.5C175 112.672 175.672 112 176.5 112C177.328 112 178 112.672 178 113.5Z" fill="#36393D"/>
<path d="M367 113.5C367 114.328 367.672 115 368.5 115C369.328 115 370 114.328 370 113.5C370 112.672 369.328 112 368.5 112C367.672 112 367 112.672 367 113.5Z" fill="#36393D"/>
<path d="M210 113.5C210 114.328 209.328 115 208.5 115C207.672 115 207 114.328 207 113.5C207 112.672 207.672 112 208.5 112C209.328 112 210 112.672 210 113.5Z" fill="#36393D"/>
<path d="M336 113.5C336 114.328 336.672 115 337.5 115C338.328 115 339 114.328 339 113.5C339 112.672 338.328 112 337.5 112C336.672 112 336 112.672 336 113.5Z" fill="#36393D"/>
<path d="M122 121.5C122 122.328 121.328 123 120.5 123C119.672 123 119 122.328 119 121.5C119 120.672 119.672 120 120.5 120C121.328 120 122 120.672 122 121.5Z" fill="#36393D"/>
<path d="M423 121.5C423 122.328 423.672 123 424.5 123C425.328 123 426 122.328 426 121.5C426 120.672 425.328 120 424.5 120C423.672 120 423 120.672 423 121.5Z" fill="#36393D"/>
<path d="M146 137.5C146 138.328 145.328 139 144.5 139C143.672 139 143 138.328 143 137.5C143 136.672 143.672 136 144.5 136C145.328 136 146 136.672 146 137.5Z" fill="#36393D"/>
<path d="M399 137.5C399 138.328 399.672 139 400.5 139C401.328 139 402 138.328 402 137.5C402 136.672 401.328 136 400.5 136C399.672 136 399 136.672 399 137.5Z" fill="#36393D"/>
<path d="M186 113.5C186 114.328 185.328 115 184.5 115C183.672 115 183 114.328 183 113.5C183 112.672 183.672 112 184.5 112C185.328 112 186 112.672 186 113.5Z" fill="#36393D"/>
<path d="M359 113.5C359 114.328 359.672 115 360.5 115C361.328 115 362 114.328 362 113.5C362 112.672 361.328 112 360.5 112C359.672 112 359 112.672 359 113.5Z" fill="#36393D"/>
<path d="M218 113.5C218 114.328 217.328 115 216.5 115C215.672 115 215 114.328 215 113.5C215 112.672 215.672 112 216.5 112C217.328 112 218 112.672 218 113.5Z" fill="#36393D"/>
<path d="M328 113.5C328 114.328 328.672 115 329.5 115C330.328 115 331 114.328 331 113.5C331 112.672 330.328 112 329.5 112C328.672 112 328 112.672 328 113.5Z" fill="#36393D"/>
<path d="M130 129.5C130 130.328 129.328 131 128.5 131C127.672 131 127 130.328 127 129.5C127 128.672 127.672 128 128.5 128C129.328 128 130 128.672 130 129.5Z" fill="#36393D"/>
<path d="M415 129.5C415 130.328 415.672 131 416.5 131C417.328 131 418 130.328 418 129.5C418 128.672 417.328 128 416.5 128C415.672 128 415 128.672 415 129.5Z" fill="#36393D"/>
<path d="M138 121.5C138 122.328 137.328 123 136.5 123C135.672 123 135 122.328 135 121.5C135 120.672 135.672 120 136.5 120C137.328 120 138 120.672 138 121.5Z" fill="#36393D"/>
<path d="M407 121.5C407 122.328 407.672 123 408.5 123C409.328 123 410 122.328 410 121.5C410 120.672 409.328 120 408.5 120C407.672 120 407 120.672 407 121.5Z" fill="#36393D"/>
<path d="M146 113.5C146 114.328 145.328 115 144.5 115C143.672 115 143 114.328 143 113.5C143 112.672 143.672 112 144.5 112C145.328 112 146 112.672 146 113.5Z" fill="#36393D"/>
<path d="M399 113.5C399 114.328 399.672 115 400.5 115C401.328 115 402 114.328 402 113.5C402 112.672 401.328 112 400.5 112C399.672 112 399 112.672 399 113.5Z" fill="#36393D"/>
<path d="M122 113.5C122 114.328 121.328 115 120.5 115C119.672 115 119 114.328 119 113.5C119 112.672 119.672 112 120.5 112C121.328 112 122 112.672 122 113.5Z" fill="#36393D"/>
<path d="M423 113.5C423 114.328 423.672 115 424.5 115C425.328 115 426 114.328 426 113.5C426 112.672 425.328 112 424.5 112C423.672 112 423 112.672 423 113.5Z" fill="#36393D"/>
<path d="M146 105.5C146 106.328 145.328 107 144.5 107C143.672 107 143 106.328 143 105.5C143 104.672 143.672 104 144.5 104C145.328 104 146 104.672 146 105.5Z" fill="#36393D"/>
<path d="M399 105.5C399 106.328 399.672 107 400.5 107C401.328 107 402 106.328 402 105.5C402 104.672 401.328 104 400.5 104C399.672 104 399 104.672 399 105.5Z" fill="#36393D"/>
<path d="M138 97.5C138 98.3284 137.328 99 136.5 99C135.672 99 135 98.3284 135 97.5C135 96.6716 135.672 96 136.5 96C137.328 96 138 96.6716 138 97.5Z" fill="#36393D"/>
<path d="M407 97.5C407 98.3284 407.672 99 408.5 99C409.328 99 410 98.3284 410 97.5C410 96.6716 409.328 96 408.5 96C407.672 96 407 96.6716 407 97.5Z" fill="#36393D"/>
<path d="M130 89.5C130 90.3284 129.328 91 128.5 91C127.672 91 127 90.3284 127 89.5C127 88.6716 127.672 88 128.5 88C129.328 88 130 88.6716 130 89.5Z" fill="#36393D"/>
<path d="M415 89.5C415 90.3284 415.672 91 416.5 91C417.328 91 418 90.3284 418 89.5C418 88.6716 417.328 88 416.5 88C415.672 88 415 88.6716 415 89.5Z" fill="#36393D"/>
<path d="M122 81.5C122 82.3284 121.328 83 120.5 83C119.672 83 119 82.3284 119 81.5C119 80.6716 119.672 80 120.5 80C121.328 80 122 80.6716 122 81.5Z" fill="#36393D"/>
<path d="M423 81.5C423 82.3284 423.672 83 424.5 83C425.328 83 426 82.3284 426 81.5C426 80.6716 425.328 80 424.5 80C423.672 80 423 80.6716 423 81.5Z" fill="#36393D"/>
<path d="M122 65.5C122 66.3284 121.328 67 120.5 67C119.672 67 119 66.3284 119 65.5C119 64.6716 119.672 64 120.5 64C121.328 64 122 64.6716 122 65.5Z" fill="#36393D"/>
<path d="M423 65.5C423 66.3284 423.672 67 424.5 67C425.328 67 426 66.3284 426 65.5C426 64.6716 425.328 64 424.5 64C423.672 64 423 64.6716 423 65.5Z" fill="#36393D"/>
<path d="M146 73.5C146 74.3284 145.328 75 144.5 75C143.672 75 143 74.3284 143 73.5C143 72.6716 143.672 72 144.5 72C145.328 72 146 72.6716 146 73.5Z" fill="#36393D"/>
<path d="M399 73.5C399 74.3284 399.672 75 400.5 75C401.328 75 402 74.3284 402 73.5C402 72.6716 401.328 72 400.5 72C399.672 72 399 72.6716 399 73.5Z" fill="#36393D"/>
<path d="M194 65.5C194 66.3284 193.328 67 192.5 67C191.672 67 191 66.3284 191 65.5C191 64.6716 191.672 64 192.5 64C193.328 64 194 64.6716 194 65.5Z" fill="#36393D"/>
<path d="M352 65.5C352 66.3284 352.672 67 353.5 67C354.328 67 355 66.3284 355 65.5C355 64.6716 354.328 64 353.5 64C352.672 64 352 64.6716 352 65.5Z" fill="#36393D"/>
<path d="M178 65.5C178 66.3284 177.328 67 176.5 67C175.672 67 175 66.3284 175 65.5C175 64.6716 175.672 64 176.5 64C177.328 64 178 64.6716 178 65.5Z" fill="#36393D"/>
<path d="M367 65.5C367 66.3284 367.672 67 368.5 67C369.328 67 370 66.3284 370 65.5C370 64.6716 369.328 64 368.5 64C367.672 64 367 64.6716 367 65.5Z" fill="#36393D"/>
<path d="M186 57.5C186 58.3284 185.328 59 184.5 59C183.672 59 183 58.3284 183 57.5C183 56.6716 183.672 56 184.5 56C185.328 56 186 56.6716 186 57.5Z" fill="#36393D"/>
<path d="M359 57.5C359 58.3284 359.672 59 360.5 59C361.328 59 362 58.3284 362 57.5C362 56.6716 361.328 56 360.5 56C359.672 56 359 56.6716 359 57.5Z" fill="#36393D"/>
<path d="M186 41.5C186 42.3284 185.328 43 184.5 43C183.672 43 183 42.3284 183 41.5C183 40.6716 183.672 40 184.5 40C185.328 40 186 40.6716 186 41.5Z" fill="#36393D"/>
<path d="M359 41.5C359 42.3284 359.672 43 360.5 43C361.328 43 362 42.3284 362 41.5C362 40.6716 361.328 40 360.5 40C359.672 40 359 40.6716 359 41.5Z" fill="#36393D"/>
<path d="M186 33.5C186 34.3284 185.328 35 184.5 35C183.672 35 183 34.3284 183 33.5C183 32.6716 183.672 32 184.5 32C185.328 32 186 32.6716 186 33.5Z" fill="#36393D"/>
<path d="M359 33.5C359 34.3284 359.672 35 360.5 35C361.328 35 362 34.3284 362 33.5C362 32.6716 361.328 32 360.5 32C359.672 32 359 32.6716 359 33.5Z" fill="#36393D"/>
<path d="M186 25.5C186 26.3284 185.328 27 184.5 27C183.672 27 183 26.3284 183 25.5C183 24.6716 183.672 24 184.5 24C185.328 24 186 24.6716 186 25.5Z" fill="#36393D"/>
<path d="M359 25.5C359 26.3284 359.672 27 360.5 27C361.328 27 362 26.3284 362 25.5C362 24.6716 361.328 24 360.5 24C359.672 24 359 24.6716 359 25.5Z" fill="#36393D"/>
<path d="M202 33.5C202 34.3284 201.328 35 200.5 35C199.672 35 199 34.3284 199 33.5C199 32.6716 199.672 32 200.5 32C201.328 32 202 32.6716 202 33.5Z" fill="#36393D"/>
<path d="M344 33.5C344 34.3284 344.672 35 345.5 35C346.328 35 347 34.3284 347 33.5C347 32.6716 346.328 32 345.5 32C344.672 32 344 32.6716 344 33.5Z" fill="#36393D"/>
<path d="M178 41.5C178 42.3284 177.328 43 176.5 43C175.672 43 175 42.3284 175 41.5C175 40.6716 175.672 40 176.5 40C177.328 40 178 40.6716 178 41.5Z" fill="#36393D"/>
<path d="M367 41.5C367 42.3284 367.672 43 368.5 43C369.328 43 370 42.3284 370 41.5C370 40.6716 369.328 40 368.5 40C367.672 40 367 40.6716 367 41.5Z" fill="#36393D"/>
<path d="M194 97.5C194 98.3284 193.328 99 192.5 99C191.672 99 191 98.3284 191 97.5C191 96.6716 191.672 96 192.5 96C193.328 96 194 96.6716 194 97.5Z" fill="#36393D"/>
<path d="M352 97.5C352 98.3284 352.672 99 353.5 99C354.328 99 355 98.3284 355 97.5C355 96.6716 354.328 96 353.5 96C352.672 96 352 96.6716 352 97.5Z" fill="#36393D"/>
<path d="M194 121.5C194 122.328 193.328 123 192.5 123C191.672 123 191 122.328 191 121.5C191 120.672 191.672 120 192.5 120C193.328 120 194 120.672 194 121.5Z" fill="#36393D"/>
<path d="M352 121.5C352 122.328 352.672 123 353.5 123C354.328 123 355 122.328 355 121.5C355 120.672 354.328 120 353.5 120C352.672 120 352 120.672 352 121.5Z" fill="#36393D"/>
<path d="M218 121.5C218 122.328 217.328 123 216.5 123C215.672 123 215 122.328 215 121.5C215 120.672 215.672 120 216.5 120C217.328 120 218 120.672 218 121.5Z" fill="#36393D"/>
<path d="M328 121.5C328 122.328 328.672 123 329.5 123C330.328 123 331 122.328 331 121.5C331 120.672 330.328 120 329.5 120C328.672 120 328 120.672 328 121.5Z" fill="#36393D"/>
<path d="M186 121.5C186 122.328 185.328 123 184.5 123C183.672 123 183 122.328 183 121.5C183 120.672 183.672 120 184.5 120C185.328 120 186 120.672 186 121.5Z" fill="#36393D"/>
<path d="M359 121.5C359 122.328 359.672 123 360.5 123C361.328 123 362 122.328 362 121.5C362 120.672 361.328 120 360.5 120C359.672 120 359 120.672 359 121.5Z" fill="#36393D"/>
<path d="M146 81.5C146 82.3284 145.328 83 144.5 83C143.672 83 143 82.3284 143 81.5C143 80.6716 143.672 80 144.5 80C145.328 80 146 80.6716 146 81.5Z" fill="#36393D"/>
<path d="M399 81.5C399 82.3284 399.672 83 400.5 83C401.328 83 402 82.3284 402 81.5C402 80.6716 401.328 80 400.5 80C399.672 80 399 80.6716 399 81.5Z" fill="#36393D"/>
<path d="M194 73.5C194 74.3284 193.328 75 192.5 75C191.672 75 191 74.3284 191 73.5C191 72.6716 191.672 72 192.5 72C193.328 72 194 72.6716 194 73.5Z" fill="#36393D"/>
<path d="M352 73.5C352 74.3284 352.672 75 353.5 75C354.328 75 355 74.3284 355 73.5C355 72.6716 354.328 72 353.5 72C352.672 72 352 72.6716 352 73.5Z" fill="#36393D"/>
<path d="M194 105.5C194 106.328 193.328 107 192.5 107C191.672 107 191 106.328 191 105.5C191 104.672 191.672 104 192.5 104C193.328 104 194 104.672 194 105.5Z" fill="#36393D"/>
<path d="M352 105.5C352 106.328 352.672 107 353.5 107C354.328 107 355 106.328 355 105.5C355 104.672 354.328 104 353.5 104C352.672 104 352 104.672 352 105.5Z" fill="#36393D"/>
<path d="M210 105.5C210 106.328 209.328 107 208.5 107C207.672 107 207 106.328 207 105.5C207 104.672 207.672 104 208.5 104C209.328 104 210 104.672 210 105.5Z" fill="#36393D"/>
<path d="M336 105.5C336 106.328 336.672 107 337.5 107C338.328 107 339 106.328 339 105.5C339 104.672 338.328 104 337.5 104C336.672 104 336 104.672 336 105.5Z" fill="#36393D"/>
<path d="M210 89.5C210 90.3284 209.328 91 208.5 91C207.672 91 207 90.3284 207 89.5C207 88.6716 207.672 88 208.5 88C209.328 88 210 88.6716 210 89.5Z" fill="#36393D"/>
<path d="M336 89.5C336 90.3284 336.672 91 337.5 91C338.328 91 339 90.3284 339 89.5C339 88.6716 338.328 88 337.5 88C336.672 88 336 88.6716 336 89.5Z" fill="#36393D"/>
<path d="M218 65.5C218 66.3284 217.328 67 216.5 67C215.672 67 215 66.3284 215 65.5C215 64.6716 215.672 64 216.5 64C217.328 64 218 64.6716 218 65.5Z" fill="#36393D"/>
<path d="M328 65.5C328 66.3284 328.672 67 329.5 67C330.328 67 331 66.3284 331 65.5C331 64.6716 330.328 64 329.5 64C328.672 64 328 64.6716 328 65.5Z" fill="#36393D"/>
<path d="M218 89.5C218 90.3284 217.328 91 216.5 91C215.672 91 215 90.3284 215 89.5C215 88.6716 215.672 88 216.5 88C217.328 88 218 88.6716 218 89.5Z" fill="#36393D"/>
<path d="M328 89.5C328 90.3284 328.672 91 329.5 91C330.328 91 331 90.3284 331 89.5C331 88.6716 330.328 88 329.5 88C328.672 88 328 88.6716 328 89.5Z" fill="#36393D"/>
<path d="M210 81.5C210 82.3284 209.328 83 208.5 83C207.672 83 207 82.3284 207 81.5C207 80.6716 207.672 80 208.5 80C209.328 80 210 80.6716 210 81.5Z" fill="#36393D"/>
<path d="M336 81.5C336 82.3284 336.672 83 337.5 83C338.328 83 339 82.3284 339 81.5C339 80.6716 338.328 80 337.5 80C336.672 80 336 80.6716 336 81.5Z" fill="#36393D"/>
<path d="M218 57.5C218 58.3284 217.328 59 216.5 59C215.672 59 215 58.3284 215 57.5C215 56.6716 215.672 56 216.5 56C217.328 56 218 56.6716 218 57.5Z" fill="#36393D"/>
<path d="M328 57.5C328 58.3284 328.672 59 329.5 59C330.328 59 331 58.3284 331 57.5C331 56.6716 330.328 56 329.5 56C328.672 56 328 56.6716 328 57.5Z" fill="#36393D"/>
<path d="M218 25.5C218 26.3284 217.328 27 216.5 27C215.672 27 215 26.3284 215 25.5C215 24.6716 215.672 24 216.5 24C217.328 24 218 24.6716 218 25.5Z" fill="#36393D"/>
<path d="M328 25.5C328 26.3284 328.672 27 329.5 27C330.328 27 331 26.3284 331 25.5C331 24.6716 330.328 24 329.5 24C328.672 24 328 24.6716 328 25.5Z" fill="#36393D"/>
<path d="M210 57.5C210 58.3284 209.328 59 208.5 59C207.672 59 207 58.3284 207 57.5C207 56.6716 207.672 56 208.5 56C209.328 56 210 56.6716 210 57.5Z" fill="#36393D"/>
<path d="M336 57.5C336 58.3284 336.672 59 337.5 59C338.328 59 339 58.3284 339 57.5C339 56.6716 338.328 56 337.5 56C336.672 56 336 56.6716 336 57.5Z" fill="#36393D"/>
<path d="M210 73.5C210 74.3284 209.328 75 208.5 75C207.672 75 207 74.3284 207 73.5C207 72.6716 207.672 72 208.5 72C209.328 72 210 72.6716 210 73.5Z" fill="#36393D"/>
<path d="M336 73.5C336 74.3284 336.672 75 337.5 75C338.328 75 339 74.3284 339 73.5C339 72.6716 338.328 72 337.5 72C336.672 72 336 72.6716 336 73.5Z" fill="#36393D"/>
<path d="M218 49.5C218 50.3284 217.328 51 216.5 51C215.672 51 215 50.3284 215 49.5C215 48.6716 215.672 48 216.5 48C217.328 48 218 48.6716 218 49.5Z" fill="#36393D"/>
<path d="M328 49.5C328 50.3284 328.672 51 329.5 51C330.328 51 331 50.3284 331 49.5C331 48.6716 330.328 48 329.5 48C328.672 48 328 48.6716 328 49.5Z" fill="#36393D"/>
<path d="M218 17.5C218 18.3284 217.328 19 216.5 19C215.672 19 215 18.3284 215 17.5C215 16.6716 215.672 16 216.5 16C217.328 16 218 16.6716 218 17.5Z" fill="#36393D"/>
<path d="M328 17.5C328 18.3284 328.672 19 329.5 19C330.328 19 331 18.3284 331 17.5C331 16.6716 330.328 16 329.5 16C328.672 16 328 16.6716 328 17.5Z" fill="#36393D"/>
<path d="M234 17.5C234 18.3284 233.328 19 232.5 19C231.672 19 231 18.3284 231 17.5C231 16.6716 231.672 16 232.5 16C233.328 16 234 16.6716 234 17.5Z" fill="#36393D"/>
<path d="M312 17.5C312 18.3284 312.672 19 313.5 19C314.328 19 315 18.3284 315 17.5C315 16.6716 314.328 16 313.5 16C312.672 16 312 16.6716 312 17.5Z" fill="#36393D"/>
<path d="M242 17.5C242 18.3284 241.328 19 240.5 19C239.672 19 239 18.3284 239 17.5C239 16.6716 239.672 16 240.5 16C241.328 16 242 16.6716 242 17.5Z" fill="#36393D"/>
<path d="M304 17.5C304 18.3284 304.672 19 305.5 19C306.328 19 307 18.3284 307 17.5C307 16.6716 306.328 16 305.5 16C304.672 16 304 16.6716 304 17.5Z" fill="#36393D"/>
<path d="M226 9.5C226 10.3284 225.328 11 224.5 11C223.672 11 223 10.3284 223 9.5C223 8.67157 223.672 8 224.5 8C225.328 8 226 8.67157 226 9.5Z" fill="#36393D"/>
<path d="M320 9.5C320 10.3284 320.672 11 321.5 11C322.328 11 323 10.3284 323 9.5C323 8.67157 322.328 8 321.5 8C320.672 8 320 8.67157 320 9.5Z" fill="#36393D"/>
<path d="M226 41.5C226 42.3284 225.328 43 224.5 43C223.672 43 223 42.3284 223 41.5C223 40.6716 223.672 40 224.5 40C225.328 40 226 40.6716 226 41.5Z" fill="#36393D"/>
<path d="M320 41.5C320 42.3284 320.672 43 321.5 43C322.328 43 323 42.3284 323 41.5C323 40.6716 322.328 40 321.5 40C320.672 40 320 40.6716 320 41.5Z" fill="#36393D"/>
<path d="M234 41.5C234 42.3284 233.328 43 232.5 43C231.672 43 231 42.3284 231 41.5C231 40.6716 231.672 40 232.5 40C233.328 40 234 40.6716 234 41.5Z" fill="#36393D"/>
<path d="M312 41.5C312 42.3284 312.672 43 313.5 43C314.328 43 315 42.3284 315 41.5C315 40.6716 314.328 40 313.5 40C312.672 40 312 40.6716 312 41.5Z" fill="#36393D"/>
<path d="M242 41.5C242 42.3284 241.328 43 240.5 43C239.672 43 239 42.3284 239 41.5C239 40.6716 239.672 40 240.5 40C241.328 40 242 40.6716 242 41.5Z" fill="#36393D"/>
<path d="M304 41.5C304 42.3284 304.672 43 305.5 43C306.328 43 307 42.3284 307 41.5C307 40.6716 306.328 40 305.5 40C304.672 40 304 40.6716 304 41.5Z" fill="#36393D"/>
<path d="M242 9.5C242 10.3284 241.328 11 240.5 11C239.672 11 239 10.3284 239 9.5C239 8.67157 239.672 8 240.5 8C241.328 8 242 8.67157 242 9.5Z" fill="#36393D"/>
<path d="M304 9.5C304 10.3284 304.672 11 305.5 11C306.328 11 307 10.3284 307 9.5C307 8.67157 306.328 8 305.5 8C304.672 8 304 8.67157 304 9.5Z" fill="#36393D"/>
<path d="M226 1.5C226 2.32843 225.328 3 224.5 3C223.672 3 223 2.32843 223 1.5C223 0.671573 223.672 0 224.5 0C225.328 0 226 0.671573 226 1.5Z" fill="#36393D"/>
<path d="M320 1.5C320 2.32843 320.672 3 321.5 3C322.328 3 323 2.32843 323 1.5C323 0.671573 322.328 0 321.5 0C320.672 0 320 0.671573 320 1.5Z" fill="#36393D"/>
<path d="M226 33.5C226 34.3284 225.328 35 224.5 35C223.672 35 223 34.3284 223 33.5C223 32.6716 223.672 32 224.5 32C225.328 32 226 32.6716 226 33.5Z" fill="#36393D"/>
<path d="M320 33.5C320 34.3284 320.672 35 321.5 35C322.328 35 323 34.3284 323 33.5C323 32.6716 322.328 32 321.5 32C320.672 32 320 32.6716 320 33.5Z" fill="#36393D"/>
<path d="M194 129.5C194 130.328 193.328 131 192.5 131C191.672 131 191 130.328 191 129.5C191 128.672 191.672 128 192.5 128C193.328 128 194 128.672 194 129.5Z" fill="#36393D"/>
<path d="M352 129.5C352 130.328 352.672 131 353.5 131C354.328 131 355 130.328 355 129.5C355 128.672 354.328 128 353.5 128C352.672 128 352 128.672 352 129.5Z" fill="#36393D"/>
<path d="M218 129.5C218 130.328 217.328 131 216.5 131C215.672 131 215 130.328 215 129.5C215 128.672 215.672 128 216.5 128C217.328 128 218 128.672 218 129.5Z" fill="#36393D"/>
<path d="M328 129.5C328 130.328 328.672 131 329.5 131C330.328 131 331 130.328 331 129.5C331 128.672 330.328 128 329.5 128C328.672 128 328 128.672 328 129.5Z" fill="#36393D"/>
<path d="M186 129.5C186 130.328 185.328 131 184.5 131C183.672 131 183 130.328 183 129.5C183 128.672 183.672 128 184.5 128C185.328 128 186 128.672 186 129.5Z" fill="#36393D"/>
<path d="M359 129.5C359 130.328 359.672 131 360.5 131C361.328 131 362 130.328 362 129.5C362 128.672 361.328 128 360.5 128C359.672 128 359 128.672 359 129.5Z" fill="#36393D"/>
<path d="M154 81.5C154 82.3284 153.328 83 152.5 83C151.672 83 151 82.3284 151 81.5C151 80.6716 151.672 80 152.5 80C153.328 80 154 80.6716 154 81.5Z" fill="#36393D"/>
<path d="M391 81.5C391 82.3284 391.672 83 392.5 83C393.328 83 394 82.3284 394 81.5C394 80.6716 393.328 80 392.5 80C391.672 80 391 80.6716 391 81.5Z" fill="#36393D"/>
<path d="M74 113.5C74 114.328 73.3284 115 72.5 115C71.6716 115 71 114.328 71 113.5C71 112.672 71.6716 112 72.5 112C73.3284 112 74 112.672 74 113.5Z" fill="#36393D"/>
<path d="M471 113.5C471 114.328 471.672 115 472.5 115C473.328 115 474 114.328 474 113.5C474 112.672 473.328 112 472.5 112C471.672 112 471 112.672 471 113.5Z" fill="#36393D"/>
<path d="M91 153.5C91 154.328 90.3284 155 89.5 155C88.6716 155 88 154.328 88 153.5C88 152.672 88.6716 152 89.5 152C90.3284 152 91 152.672 91 153.5Z" fill="#36393D"/>
<path d="M454 153.5C454 154.328 454.672 155 455.5 155C456.328 155 457 154.328 457 153.5C457 152.672 456.328 152 455.5 152C454.672 152 454 152.672 454 153.5Z" fill="#36393D"/>
<path d="M99 153.5C99 154.328 98.3284 155 97.5 155C96.6716 155 96 154.328 96 153.5C96 152.672 96.6716 152 97.5 152C98.3284 152 99 152.672 99 153.5Z" fill="#36393D"/>
<path d="M446 153.5C446 154.328 446.672 155 447.5 155C448.328 155 449 154.328 449 153.5C449 152.672 448.328 152 447.5 152C446.672 152 446 152.672 446 153.5Z" fill="#36393D"/>
<path d="M99 129.5C99 130.328 98.3284 131 97.5 131C96.6716 131 96 130.328 96 129.5C96 128.672 96.6716 128 97.5 128C98.3284 128 99 128.672 99 129.5Z" fill="#02FCEF"/>
<path d="M446 129.5C446 130.328 446.672 131 447.5 131C448.328 131 449 130.328 449 129.5C449 128.672 448.328 128 447.5 128C446.672 128 446 128.672 446 129.5Z" fill="#02FCEF"/>
<path d="M130 137.5C130 138.328 129.328 139 128.5 139C127.672 139 127 138.328 127 137.5C127 136.672 127.672 136 128.5 136C129.328 136 130 136.672 130 137.5Z" fill="#02FCEF"/>
<path d="M415 137.5C415 138.328 415.672 139 416.5 139C417.328 139 418 138.328 418 137.5C418 136.672 417.328 136 416.5 136C415.672 136 415 136.672 415 137.5Z" fill="#02FCEF"/>
<path d="M146 89.5C146 90.3284 145.328 91 144.5 91C143.672 91 143 90.3284 143 89.5C143 88.6716 143.672 88 144.5 88C145.328 88 146 88.6716 146 89.5Z" fill="#02FCEF"/>
<path d="M399 89.5C399 90.3284 399.672 91 400.5 91C401.328 91 402 90.3284 402 89.5C402 88.6716 401.328 88 400.5 88C399.672 88 399 88.6716 399 89.5Z" fill="#02FCEF"/>
<path d="M194 81.5C194 82.3284 193.328 83 192.5 83C191.672 83 191 82.3284 191 81.5C191 80.6716 191.672 80 192.5 80C193.328 80 194 80.6716 194 81.5Z" fill="#02FCEF"/>
<path d="M352 81.5C352 82.3284 352.672 83 353.5 83C354.328 83 355 82.3284 355 81.5C355 80.6716 354.328 80 353.5 80C352.672 80 352 80.6716 352 81.5Z" fill="#02FCEF"/>
<path d="M194 33.5C194 34.3284 193.328 35 192.5 35C191.672 35 191 34.3284 191 33.5C191 32.6716 191.672 32 192.5 32C193.328 32 194 32.6716 194 33.5Z" fill="#02FCEF"/>
<path d="M352 33.5C352 34.3284 352.672 35 353.5 35C354.328 35 355 34.3284 355 33.5C355 32.6716 354.328 32 353.5 32C352.672 32 352 32.6716 352 33.5Z" fill="#02FCEF"/>
<path d="M250 41.5C250 42.3284 249.328 43 248.5 43C247.672 43 247 42.3284 247 41.5C247 40.6716 247.672 40 248.5 40C249.328 40 250 40.6716 250 41.5Z" fill="#02FCEF"/>
<path d="M296 41.5C296 42.3284 296.672 43 297.5 43C298.328 43 299 42.3284 299 41.5C299 40.6716 298.328 40 297.5 40C296.672 40 296 40.6716 296 41.5Z" fill="#02FCEF"/>
<path d="M234 9.5C234 10.3284 233.328 11 232.5 11C231.672 11 231 10.3284 231 9.5C231 8.67157 231.672 8 232.5 8C233.328 8 234 8.67157 234 9.5Z" fill="#02FCEF"/>
<path d="M312 9.5C312 10.3284 312.672 11 313.5 11C314.328 11 315 10.3284 315 9.5C315 8.67157 314.328 8 313.5 8C312.672 8 312 8.67157 312 9.5Z" fill="#02FCEF"/>
<path d="M202 105.5C202 106.328 201.328 107 200.5 107C199.672 107 199 106.328 199 105.5C199 104.672 199.672 104 200.5 104C201.328 104 202 104.672 202 105.5Z" fill="#02FCEF"/>
<path d="M344 105.5C344 106.328 344.672 107 345.5 107C346.328 107 347 106.328 347 105.5C347 104.672 346.328 104 345.5 104C344.672 104 344 104.672 344 105.5Z" fill="#02FCEF"/>
<path d="M50 121.5C50 122.328 49.3284 123 48.5 123C47.6716 123 47 122.328 47 121.5C47 120.672 47.6716 120 48.5 120C49.3284 120 50 120.672 50 121.5Z" fill="#36393D"/>
<path d="M494 121.5C494 122.328 494.672 123 495.5 123C496.328 123 497 122.328 497 121.5C497 120.672 496.328 120 495.5 120C494.672 120 494 120.672 494 121.5Z" fill="#36393D"/>
<path d="M19 145.5C19 146.328 18.3284 147 17.5 147C16.6716 147 16 146.328 16 145.5C16 144.672 16.6716 144 17.5 144C18.3284 144 19 144.672 19 145.5Z" fill="#36393D"/>
<path d="M525 145.5C525 146.328 525.672 147 526.5 147C527.328 147 528 146.328 528 145.5C528 144.672 527.328 144 526.5 144C525.672 144 525 144.672 525 145.5Z" fill="#36393D"/>
</g>
</g>
<defs>
<clipPath id="clip0_309_2">
<rect width="544" height="155" fill="white"/>
</clipPath>
</defs>
</svg>
